<svg width="22" height="16" viewBox="0 0 22 16" fill="none" xmlns="http://www.w3.org/2000/svg">
<path fill-rule="evenodd" clip-rule="evenodd" d="M22 5.36587C22 4.77559 21.4555 4.29266 20.79 4.29266H19.343L18.2938 1.8731C18.0331 1.2722 17.2487 0.635611 16.5505 0.458677L16.5503 0.458623L16.5492 0.458352C16.4932 0.444621 14.6811 0 10.9998 0C7.2597 0 5.44918 0.458956 5.44918 0.458956C4.75108 0.635893 3.96678 1.2722 3.7062 1.87338L2.657 4.29269H1.21004C0.544498 4.29269 0 4.77558 0 5.3659C0 5.95608 0.544459 6.43911 1.21004 6.43911H1.72613L1.35384 7.29768C1.09326 7.89831 0.879973 8.91709 0.879973 9.561V14.6342C0.879973 15.3854 1.57301 16 2.41993 16C3.26685 16 3.95988 15.3853 3.95988 14.6342V13.8538H18.0398V14.6342C18.0398 15.3854 18.7329 16 19.5798 16C20.4267 16 21.1197 15.3853 21.1197 14.6342L21.1201 9.561C21.1201 8.91709 20.9066 7.89831 20.6462 7.29754L20.2737 6.43911H20.79C21.4555 6.43911 22 5.95604 22 5.36587ZM3.8921 5.68272L5.12791 2.7077C5.21169 2.50626 5.4781 2.34143 5.7201 2.34143H16.2801C16.5221 2.34143 16.7886 2.50625 16.8721 2.70742L18.1079 5.68244C18.1914 5.88388 18.062 6.04872 17.82 6.04872H4.18006C3.93805 6.04872 3.80847 5.88389 3.8921 5.68272ZM6.43396 9.52601C6.43396 10.3433 5.69059 11.0058 4.77358 11.0058C3.85658 11.0058 3.11321 10.3433 3.11321 9.52601C3.11321 8.70876 3.85658 8.04624 4.77358 8.04624C5.69059 8.04624 6.43396 8.70876 6.43396 9.52601ZM17.2264 11.0058C18.1434 11.0058 18.8868 10.3433 18.8868 9.52601C18.8868 8.70876 18.1434 8.04624 17.2264 8.04624C16.3094 8.04624 15.566 8.70876 15.566 9.52601C15.566 10.3433 16.3094 11.0058 17.2264 11.0058Z" fill="#BE6833"/>
</svg>
