<svg width="15" height="26" viewBox="0 0 15 26" fill="none" xmlns="http://www.w3.org/2000/svg">
<path fill-rule="evenodd" clip-rule="evenodd" d="M12.4476 13.8333C11.6366 13.2517 10.6734 12.4594 10.6734 12.4594V9.45098L15 13.1138C14.7998 14.1968 13.535 14.613 12.4476 13.8333ZM5.32284 2.35102C4.97053 -0.45687 9.58099 -1.01845 9.58099 2.14795C9.58099 5.35948 5.66501 5.07117 5.32284 2.35102ZM9.37822 6.46007L9.54804 15.3375L14.1737 25.3657C13.6186 26.0025 12.1663 26.3209 11.4541 25.0599C9.78883 22.1141 4.9756 13.5149 4.9756 13.5149L4.38757 9.41087L2.7426 9.94738L1.92899 14.4124C1.92899 14.4124 -0.116442 14.6631 0.00521979 13.0235C0.134485 11.3338 0.344858 8.11723 0.344858 8.11723L4.79564 5.47731C7.84225 5.24416 9.3909 6.4701 9.3909 6.4701L9.37822 6.46007ZM4.30899 15.1821L6.20489 18.534L2.46126 26C1.53866 26 0.253612 25.1326 0.864454 23.676C1.44995 22.2871 4.3242 15.1921 4.3242 15.1921L4.30899 15.1821Z" fill="#465587"/>
</svg>
